<?xml version="1.0" encoding="UTF-8" standalone="no"?>
<!-- Created with Inkscape (http://www.inkscape.org/) -->

<svg
   xmlns:dc="http://purl.org/dc/elements/1.1/"
   xmlns:cc="http://creativecommons.org/ns#"
   xmlns:rdf="http://www.w3.org/1999/02/22-rdf-syntax-ns#"
   xmlns:svg="http://www.w3.org/2000/svg"
   xmlns="http://www.w3.org/2000/svg"
   xmlns:sodipodi="http://sodipodi.sourceforge.net/DTD/sodipodi-0.dtd"
   xmlns:inkscape="http://www.inkscape.org/namespaces/inkscape"
   width="132mm"
   height="132mm"
   viewBox="0 0 132 132"
   version="1.1"
   id="SVGRoot"
   inkscape:version="0.92.4 (f8dce91, 2019-08-02)"
   sodipodi:docname="Animalets-logo.svg">
  <defs
     id="defs5599" />
  <sodipodi:namedview
     id="base"
     pagecolor="#ffffff"
     bordercolor="#666666"
     borderopacity="1.0"
     inkscape:pageopacity="0.0"
     inkscape:pageshadow="2"
     inkscape:zoom="1.0262626"
     inkscape:cx="249.44882"
     inkscape:cy="249.44882"
     inkscape:document-units="mm"
     inkscape:current-layer="layer1"
     showgrid="false"
     inkscape:window-width="1853"
     inkscape:window-height="1025"
     inkscape:window-x="67"
     inkscape:window-y="27"
     inkscape:window-maximized="1" />
  <metadata
     id="metadata5602">
    <rdf:RDF>
      <cc:Work
         rdf:about="">
        <dc:format>image/svg+xml</dc:format>
        <dc:type
           rdf:resource="http://purl.org/dc/dcmitype/StillImage" />
        <dc:title></dc:title>
      </cc:Work>
    </rdf:RDF>
  </metadata>
  <g
     inkscape:label="Capa 1"
     inkscape:groupmode="layer"
     id="layer1">
    <g
       transform="matrix(0.26458333,0,0,0.26458333,-14.943906,-35.607237)"
       id="g4074">
      <g
         id="g4072">
        <g
           id="g3972">
          <path
             style="fill:#489e36"
             inkscape:connector-curvature="0"
             d="M 553.766,385.523 C 554.39,252.191 445.928,141.89 311.892,139.904 172.602,137.84 61.899,251.139 61.982,385.684 62.064,519.638 168.819,628.953 301.761,632.008 444.406,635.286 554.932,519.783 553.766,385.523 Z"
             id="path3970" />
        </g>
        <g
           style="display:none"
           display="none"
           id="g3976">
          <path
             style="display:inline;fill:#20ff00"
             inkscape:connector-curvature="0"
             display="inline"
             d="M 318.965,149.342 C 179.675,147.278 68.972,260.577 69.055,395.122 69.137,529.076 175.892,638.391 308.834,641.446 451.479,644.725 562.005,529.221 560.839,394.961 561.463,261.629 453.001,151.328 318.965,149.342 Z m 160.54,97.56 c 7.598,9.408 14.79,19.143 22.23,28.681 1.924,2.466 1.461,4.032 -1.139,5.558 -3.583,2.103 -7.083,4.36 -10.518,6.699 -2.458,1.673 -4.134,1.322 -5.683,-1.245 -1.612,-2.673 -3.519,-5.169 -5.652,-8.257 -8.21,5.943 -16.202,11.526 -23.968,17.407 -7.362,5.575 -7.241,5.697 -12.899,-1.213 -2.708,-3.308 -5.498,-6.549 -8.503,-10.12 9.369,-8.885 18.502,-17.547 28.052,-26.603 -2.485,-2.589 -4.551,-4.914 -6.805,-7.04 -2.068,-1.95 -2.474,-3.632 -0.302,-5.86 3.692,-3.786 7.184,-7.767 11.659,-12.646 4.807,5.161 9.49,9.64 13.528,14.639 z M 223.568,461.439 c 9.217,3.708 13.134,12.365 10.212,21.545 -2.819,8.856 -11.386,13.667 -20.865,11.82 -8.501,-1.656 -15.683,-5.518 -20.719,-12.676 -5.669,-8.057 -3.292,-16.676 5.779,-20.424 4.084,-1.687 8.557,-2.432 13.007,-3.646 4.327,1.13 8.642,1.794 12.586,3.381 z m -8.999,-50.64 c 1.822,-7.473 7.872,-12.133 15.475,-10.932 13.653,2.157 23.741,9.586 28.765,22.595 5.041,13.052 -5.15,26.961 -19.613,27.918 -4.016,-1.757 -8.418,-2.949 -11.975,-5.38 -9.736,-6.653 -15.435,-22.789 -12.652,-34.201 z m 17.305,100.762 c 2.445,-13.51 5.252,-27.176 9.985,-40.005 9.638,-26.123 42.656,-38.105 67.847,-24.92 14.051,7.354 25.606,17.933 36.257,29.406 4.959,5.342 7.226,12.327 6.392,19.082 0.065,14.844 -7.005,23.505 -21.72,27.118 -6.611,1.623 -13.492,2.333 -19.923,4.451 -9.255,3.049 -18.22,6.986 -27.294,10.581 -6.009,2.381 -11.89,5.136 -18.016,7.157 -6.535,2.156 -12.967,0.921 -18.547,-3 -10.283,-7.226 -17.356,-16.741 -14.981,-29.87 z m 49.27,-125.26 c 7.781,-8.615 17.797,-8.191 25.166,0.85 5.833,7.157 7.853,15.599 8.577,24.517 0.215,17.402 -13.407,28.369 -29.167,23.304 -7.846,-2.522 -12.509,-8.331 -13.709,-16.276 -1.816,-12.031 0.766,-23.131 9.133,-32.395 z m 52.952,71.794 c -6.344,-3.478 -10.092,-8.964 -10.68,-18.545 1.016,-2.332 2.19,-6.768 4.652,-10.309 4.971,-7.15 11.821,-11.943 20.57,-13.84 11.219,-2.433 19.16,3.521 18.577,14.856 -0.532,10.349 -4.613,19.391 -13.016,25.879 -6.165,4.759 -13.126,5.784 -20.103,1.959 z m 11.871,-74.428 c -13.082,-3.336 -17.753,-17.721 -9.347,-28.393 6.933,-8.802 15.639,-16.03 25.98,-20.556 15.94,-6.975 34.753,0.351 41.181,16.484 3.581,8.987 5.191,18.759 6.602,24.077 0.089,18.181 -13.458,28.133 -25.628,22.129 -12.484,-6.158 -25.387,-10.324 -38.788,-13.741 z m 11.629,-69.822 c -0.074,-6.458 1.928,-12.116 6.143,-16.917 4.392,-5.003 9.963,-5.164 14.768,-0.607 5.018,4.759 6.901,10.786 6.966,17.524 0.066,9.705 -4.923,15.397 -13.583,15.491 -8.803,0.096 -14.184,-5.837 -14.294,-15.491 z m 35.997,5.506 c 3.598,-7.905 10.25,-12.519 18.49,-13.362 6.043,-0.618 10.585,3.455 10.228,13.488 -0.745,4.974 -2.755,11.182 -8.341,15.597 -5.359,4.236 -11.096,4.262 -16.467,0.231 -5.143,-3.861 -6.72,-9.781 -3.91,-15.954 z m 14.86,35.564 c 0.244,-4.435 2.477,-7.584 6.409,-9.27 2.686,-1.152 5.658,-1.636 8.502,-2.419 7.351,0.511 12.943,3.702 14.227,8.521 1.206,4.525 -2.541,10.27 -8.968,13.445 -4.959,2.45 -10.143,3.518 -15.183,0.41 -3.865,-2.382 -5.234,-6.202 -4.987,-10.687 z m -19.99,-108.006 c 7.79,-15.41 15.347,-30.938 23.207,-46.312 0.599,-1.171 3.426,-2.468 4.387,-2 14.837,7.225 28.47,16.315 41.581,27.307 -3.707,4.536 -7.108,8.699 -10.68,13.071 -5.323,-3.945 -10.04,-7.586 -14.942,-10.957 -1.06,-0.729 -2.788,-0.488 -4.208,-0.694 0.59,1.33 0.826,3.095 1.831,3.913 4.071,3.314 8.379,6.336 12.846,9.649 -3.618,4.538 -6.687,8.387 -10.04,12.593 -5.133,-3.621 -9.845,-6.944 -14.489,-10.22 -3.123,2.049 -2.702,3.701 -0.187,5.478 3.529,2.494 6.917,5.19 10.467,7.652 2.278,1.579 2.745,3.076 0.721,5.233 -2.833,3.019 -5.154,8.069 -8.385,8.698 -2.87,0.559 -6.666,-3.753 -10.083,-5.865 -6.782,-4.192 -13.527,-8.452 -20.413,-12.468 -2.352,-1.372 -2.916,-2.5 -1.613,-5.078 z M 342.562,211.76 c 1.51,-10.005 3.113,-19.999 4.453,-30.027 0.562,-4.202 2.299,-5.759 6.57,-4.65 5.619,1.458 11.289,2.778 17.003,3.789 4.768,0.843 6.274,2.661 4.579,7.656 -2.985,8.795 -5.279,17.825 -7.834,26.765 -0.438,1.534 -0.736,3.107 -1.13,4.793 5.758,2.104 11.029,4.091 16.344,5.95 3.076,1.075 4.295,2.568 2.598,5.897 -1.88,3.689 -3.085,7.728 -5.027,11.379 -0.585,1.1 -2.895,2.274 -3.995,1.957 -12.081,-3.478 -24.08,-7.244 -36.96,-11.196 1.112,-7.293 2.266,-14.802 3.399,-22.313 z m 8.725,116.19 c 3.284,7.861 -3.055,16.603 -11.614,16.48 -6.564,-0.094 -12.54,-5.252 -14.679,-13.417 -0.804,-3.067 -0.908,-6.568 -0.331,-9.687 0.841,-4.553 4.658,-7.124 9.182,-6.451 8.074,1.202 14.254,5.443 17.442,13.075 z M 270.812,224.461 c 2.803,-15.003 5.861,-29.961 9.151,-44.864 0.333,-1.508 2.793,-3.405 4.455,-3.614 7.91,-0.998 15.877,-1.679 23.843,-1.979 1.816,-0.068 4.655,1.354 5.417,2.887 8.599,17.326 14.761,35.55 19.163,54.375 0.144,0.614 0.018,1.292 0.018,2.021 -7.328,0 -14.258,0.093 -21.178,-0.128 -0.79,-0.025 -1.984,-1.719 -2.206,-2.8 -0.979,-4.775 -4.631,-4.498 -7.779,-3.78 -3.3,0.753 -8.68,-1.334 -8.796,5.266 -0.02,1.145 -1.346,3.024 -2.376,3.269 -6.583,1.568 -13.253,2.774 -20.912,4.302 0.397,-5.318 0.316,-10.227 1.2,-14.955 z m -96.268,-0.995 c 5.801,-3.879 11.308,-8.199 16.906,-12.379 2.503,-1.869 4.592,-1.742 7.079,0.362 5.643,4.773 11.537,9.25 18.11,14.467 -0.959,-7.215 -1.658,-13.406 -2.63,-19.553 -1.208,-7.644 -1.116,-8.107 6.077,-11.296 5.623,-2.493 11.266,-4.977 17.049,-7.048 1.366,-0.489 4.308,0.161 4.878,1.195 8.899,16.147 17.531,32.442 26.192,48.72 0.206,0.387 0.026,0.979 0.026,1.998 -5.526,2.051 -11.189,4.378 -17.027,6.117 -1.09,0.325 -3.415,-1.373 -4.26,-2.712 -4.145,-6.566 -7.982,-13.326 -12.63,-19.724 1.32,8.148 2.567,16.309 3.997,24.438 0.551,3.129 -0.571,4.818 -3.332,6.318 -7.465,4.054 -7.347,4.128 -13.896,-1.301 -5.084,-4.214 -10.304,-8.264 -16.115,-11.878 3.685,6.577 7.173,13.277 11.138,19.68 1.958,3.162 1.32,4.932 -1.399,6.989 -4.214,3.189 -8.205,6.675 -12.757,10.419 -1.717,-2.419 -3.369,-4.435 -4.684,-6.65 -8.141,-13.718 -16.178,-27.499 -24.32,-41.217 -1.756,-2.96 -1.475,-4.89 1.598,-6.945 z m -38.999,41.368 c 5.248,-6.993 10.861,-13.712 16.819,-21.067 14.795,13.838 28.938,27.066 43.366,40.56 -4.301,5.388 -8.19,10.511 -12.441,15.314 -0.631,0.713 -3.36,0.485 -4.454,-0.27 -8.878,-6.123 -17.604,-12.468 -26.364,-18.762 -5.12,-3.679 -10.327,-7.251 -15.244,-11.185 -1.139,-0.911 -2.241,-3.846 -1.682,-4.59 z m -38.818,85.954 c 1.823,-6.033 3.315,-12.176 4.701,-18.327 0.71,-3.151 2.377,-4.811 5.461,-5.673 9.412,-2.63 18.767,-5.463 28.357,-8.279 -6.842,-2.959 -13.571,-5.999 -20.408,-8.77 -3.175,-1.287 -4.027,-3.011 -2.431,-6.072 2.998,-5.747 5.926,-11.53 8.839,-17.32 1.385,-2.754 2.987,-3.437 5.903,-1.684 14.822,8.907 29.786,17.579 44.56,26.563 1.027,0.625 1.722,3.461 1.198,4.676 -2.032,4.714 -4.45,9.291 -7.105,13.69 -0.779,1.29 -2.72,2.292 -4.296,2.621 -8.896,1.854 -17.842,3.463 -26.771,5.155 -0.003,0.408 -0.005,0.817 -0.008,1.225 6.79,2.185 13.533,4.537 20.391,6.482 3.304,0.937 4.294,2.242 3.163,5.654 -1.663,5.016 -2.822,10.199 -4.353,15.892 -7.466,-1.258 -14.782,-2.395 -22.061,-3.739 -10.281,-1.898 -20.515,-4.06 -30.81,-5.875 -3.843,-0.678 -5.622,-1.941 -4.33,-6.219 z m -3.91,67.069 c -0.264,-6.153 -0.619,-12.303 -0.977,-19.253 -1.657,-5.623 1.575,-8.753 7.327,-10.477 16.539,-4.956 33.041,-10.039 49.563,-15.056 3.36,-1.02 4.626,0.205 4.195,3.714 -0.648,5.274 -0.946,10.592 -1.648,15.857 -0.164,1.229 -1.235,3.22 -2.086,3.329 -5.297,0.681 -5.104,4.344 -4.806,8.105 0.329,4.16 -0.422,9.029 6.198,9.164 0.807,0.017 2.024,2.075 2.275,3.341 1.033,5.209 1.677,10.493 2.643,15.717 0.62,3.351 -0.865,4.43 -3.822,3.795 -17.851,-3.835 -35.671,-7.811 -53.534,-11.585 -3.85,-0.813 -5.175,-3.082 -5.328,-6.651 z m 25.725,52.199 c 0.088,-3.843 1.947,-6.237 6.041,-6.376 4.085,-0.139 6.737,2.289 6.799,6.842 -0.137,3.255 -2.15,5.51 -6.055,5.798 -3.795,0.278 -6.869,-2.553 -6.785,-6.264 z m 44.488,72.733 c -0.235,0.199 -0.47,0.398 -0.705,0.597 -1.59,-1.671 -4.155,-3.156 -4.52,-5.062 -0.107,-0.559 -0.102,-1.139 -0.029,-1.732 -1.412,-1.671 -2.83,-3.339 -4.244,-5.01 -1.508,-0.217 -2.942,-0.897 -4.253,-2.351 -1.458,-1.617 -1.783,-3.143 -1.567,-4.624 -0.911,-1.113 -1.812,-2.232 -2.704,-3.357 -0.821,-0.135 -1.664,-0.605 -2.532,-1.548 -1.206,-1.311 -1.665,-3.309 -2.463,-4.996 0.002,-10e-4 0.003,-0.002 0.005,-0.003 -0.657,-0.903 -1.303,-1.814 -1.94,-2.73 -2.077,-0.594 -3.398,-2.254 -3.261,-4.923 -0.625,-0.992 -1.235,-1.995 -1.83,-3.008 -0.218,0.039 -0.433,0.082 -0.636,0.137 0.07,-0.31 0.113,-0.64 0.155,-0.97 -1.385,-2.408 -2.684,-4.875 -3.868,-7.419 -0.221,-0.055 -0.442,-0.111 -0.662,-0.167 -0.013,-0.554 -0.026,-1.107 -0.039,-1.661 0.005,-10e-4 0.011,-0.002 0.016,-0.003 -1.054,-5.259 6.548,-9.257 9.032,-3.816 0.293,0.641 0.606,1.268 0.913,1.899 0.813,-0.119 1.627,-0.225 2.445,-0.298 3.202,-0.286 3.768,1.687 1.873,4.065 -0.465,0.583 -0.939,1.161 -1.417,1.735 0.568,0.997 1.15,1.983 1.748,2.958 0.785,-0.646 1.965,-0.86 3.903,-0.273 1.71,0.518 2.745,3.266 4.09,4.988 -0.44,0.335 -0.879,0.669 -1.318,1.004 -1.162,-0.947 -2.323,-1.893 -3.784,-3.084 -0.203,0.34 -0.356,0.723 -0.488,1.122 1.049,1.575 2.13,3.127 3.242,4.658 0.556,-0.396 1.302,-0.654 2.334,-0.727 1.951,-0.139 4.126,2.86 6.198,4.425 -0.427,0.604 -0.853,1.207 -1.28,1.81 -1.464,-0.869 -2.927,-1.738 -4.718,-2.801 -0.021,0.206 -0.04,0.406 -0.061,0.612 1.343,1.76 2.716,3.501 4.112,5.225 1.081,-0.268 2.13,-0.399 3.094,-0.172 4.313,1.015 5.792,4.765 4.324,9.088 0.816,0.964 1.631,1.929 2.447,2.894 1.594,-0.112 3.165,-0.136 4.634,0.24 1.494,0.383 2.411,3.015 3.02,5.174 -2.216,-0.615 -3.879,-2.669 -5.853,-3.274 1.037,1.235 2.071,2.473 3.096,3.718 0.866,1.053 1.224,2.204 1.218,3.316 1.282,-1.27 2.58,-2.555 3.927,-3.889 0.326,4.299 -5.178,10.193 -10.773,10.669 0.458,-0.453 0.918,-0.909 1.376,-1.363 -0.776,-0.089 -1.547,-0.428 -2.257,-1.073 z m 11.473,13.306 c -0.18,-2.117 0.411,-5.075 -0.741,-6.132 -1.355,-1.243 -4.223,-0.837 -6.435,-1.145 -0.232,-0.466 -0.463,-0.932 -0.694,-1.398 4.33,-2.188 8.641,-4.418 13.056,-6.42 0.189,-0.085 2.162,2.265 1.901,2.933 -1.646,4.222 -3.689,8.289 -5.601,12.407 -0.495,-0.082 -0.991,-0.164 -1.486,-0.245 z m 4.221,1.177 c -0.568,-3.914 1.843,-7.579 5.717,-8.688 4.128,-1.181 7.079,0.463 9.475,5.274 -1.217,-0.447 -2.428,-1.101 -3.666,-1.157 -2.355,-0.106 -5.477,-0.676 -6.927,0.549 -2.421,2.044 -1.827,5.044 0.913,7.17 0.589,0.457 1.05,1.079 1.719,1.781 -3.844,0.91 -6.688,-1.189 -7.231,-4.929 z m 7.602,8.182 c 2.582,-3.776 5.164,-7.553 7.747,-11.329 0.836,0.68 2.381,1.863 2.341,1.92 -2.595,3.653 -5.322,7.212 -8.038,10.779 -0.684,-0.457 -1.367,-0.914 -2.05,-1.37 z m 13.849,7.758 c -3.598,0.463 -6.58,-0.744 -7.581,-4.685 -1.121,-4.41 1.419,-8.976 5.815,-10.008 2.656,-0.623 5.461,-0.61 8.01,-0.864 0.244,2.401 0.434,4.383 0.648,6.362 0.399,3.685 -3.151,8.714 -6.892,9.195 z m 7.391,6.076 c 0.027,-0.535 -0.243,-1.858 0.214,-2.844 1.038,-2.242 2.182,-4.533 3.768,-6.39 1.164,-1.363 3.564,-3.242 4.594,-2.832 2.412,0.96 5.685,2.776 4.128,6.159 -0.81,1.76 -3.415,2.906 -5.437,3.836 -2.057,0.946 -4.393,1.286 -7.267,2.071 z m 15.579,2.071 c -2.021,1.703 -3.511,2.958 -5.127,4.319 -0.806,-3.061 3.169,-12.761 5.285,-13.568 3.343,-1.276 7.112,3.211 6.698,7.973 0.018,-0.011 0.035,-0.019 0.053,-0.029 -1.827,2.73 -3.666,5.474 -6.209,9.267 -0.255,-2.896 -0.443,-5.037 -0.7,-7.962 z m 10.408,11.522 c -4.207,-0.918 -5.849,-3.952 -4.921,-8.781 0.269,-1.399 0.954,-2.719 1.465,-4.071 7.011,-4.039 9.747,-3.075 13.199,4.638 -0.401,1.027 -0.741,2.083 -1.219,3.074 -1.715,3.56 -4.209,6.081 -8.524,5.14 z m 25.128,6.961 -0.151,1.243 c -2.246,-0.508 -4.744,-0.593 -6.623,-1.714 -0.855,-0.51 -0.841,-3.13 -0.588,-4.69 0.393,-2.424 1.327,-4.76 2.06,-7.231 -3.808,-2.58 -4.397,0.321 -5.392,2.857 -0.904,2.303 -2.098,4.492 -3.164,6.731 -0.714,-0.25 -1.429,-0.501 -2.143,-0.751 0.769,-2.569 1.664,-5.109 2.261,-7.718 0.351,-1.532 2.409,-4.098 -1.628,-3.933 -0.448,-2.221 -0.144,-4.334 2.787,-3.41 5.21,1.641 10.262,3.792 15.354,5.795 0.306,0.12 0.383,0.823 0.763,1.717 h -6.768 c 2.148,2.192 3.452,3.522 4.912,5.012 -2.161,0.717 -3.981,1.322 -5.801,1.926 1.372,1.388 2.746,2.777 4.121,4.166 z m 21.259,-1.228 c -0.182,2.397 -1.14,4.736 -1.752,7.101 -0.687,-0.083 -1.374,-0.166 -2.062,-0.249 0.272,-3.832 0.544,-7.663 0.847,-11.925 -4.177,-0.04 -8.469,-5.427 -11.878,0.589 -3.275,5.779 2.437,6.519 5.974,8.279 -4.251,2.925 -9.488,0.353 -10.257,-4.639 -0.785,-5.094 3.35,-9.744 8.447,-9.028 4.559,0.64 9.062,1.772 13.521,2.95 0.822,0.217 1.355,1.524 2,2.412 -2.995,-0.06 -4.588,1.204 -4.84,4.51 z m 16.593,2.171 c -0.363,2.446 -2.585,5.309 -4.802,6.544 -1.5,0.836 -5.399,-0.107 -6.421,-1.541 -1.487,-2.085 -1.568,-5.31 -1.799,-8.087 -0.092,-1.106 0.886,-2.301 1.439,-3.461 2.927,-0.274 6.294,-1.511 8.61,-0.451 1.788,0.819 3.307,4.744 2.973,6.996 z m 9.946,9.378 c -1.717,-3.048 -2.744,-4.871 -4.046,-7.184 -1.147,2.314 -1.994,4.023 -2.841,5.733 -0.679,-0.146 -1.357,-0.292 -2.036,-0.438 0.408,-4.388 0.601,-8.816 1.427,-13.124 0.142,-0.742 3.241,-1.711 4.493,-1.255 1.738,0.634 4.17,2.435 4.272,3.88 0.253,3.577 -0.648,7.237 -1.269,12.388 z m 13.067,-0.373 c -3.286,-5.029 -6.603,-6.727 -10.007,1.231 -0.469,-0.845 -0.938,-1.69 -1.407,-2.535 1.678,-4.434 3.301,-8.89 5.167,-13.243 0.112,-0.261 2.959,-0.015 3.188,0.546 1.707,4.172 3.074,8.482 4.548,12.749 -0.495,0.418 -0.992,0.835 -1.489,1.252 z m 9.938,-0.76 c -0.326,-0.049 -0.904,-0.082 -0.931,-0.212 -0.912,-4.365 -2.055,-8.723 -2.334,-13.135 -0.042,-0.661 4.006,-2.273 6.14,-2.236 4.278,0.076 6.331,3.069 6.867,7.017 0.123,4.814 -5.028,9.275 -9.742,8.566 z m 24.925,-3.454 c -1.91,-1.071 -3.91,-3.092 -5.703,-2.922 -1.536,0.145 -2.834,2.8 -4.237,4.344 -0.485,-0.084 -0.971,-0.167 -1.457,-0.251 0.692,-4.545 1.286,-9.11 2.24,-13.599 0.087,-0.41 3.362,-0.879 3.668,-0.39 2.389,3.82 4.413,7.868 6.55,11.845 -0.353,0.325 -0.707,0.649 -1.061,0.973 z m 10.322,-3.537 c -2.008,-1.345 -3.682,-3.188 -6.122,-5.425 0.236,3.157 0.411,5.488 0.585,7.82 -0.736,0.132 -1.471,0.264 -2.207,0.396 -0.976,-4.572 -1.952,-9.144 -2.928,-13.716 1.211,-0.112 2.864,-0.777 3.548,-0.23 1.875,1.498 3.343,3.506 5.674,6.091 -0.197,-3.901 -0.321,-6.359 -0.445,-8.818 0.684,-0.135 1.367,-0.271 2.051,-0.406 1.026,4.442 2.083,8.879 2.934,13.354 0.028,0.144 -2.494,1.333 -3.09,0.934 z m 7.482,-0.905 c -3.166,-1.86 -5.518,-9.112 -4.53,-13.966 3.105,1.881 5.46,9.141 4.53,13.966 z m 15.938,-4.778 c -1.315,-1.843 -2.63,-3.685 -4.25,-5.955 -0.371,2.751 -0.687,5.088 -1.14,8.446 -2.139,-1.934 -3.509,-3.173 -5.218,-4.718 -0.118,2.113 -0.219,3.916 -0.337,6.037 -2.314,-1.79 -6.165,-11.92 -4.999,-13.309 0.577,-0.687 2.949,-0.754 3.803,-0.132 1.637,1.194 2.771,3.079 4.534,5.178 0.207,-3.027 0.215,-5.327 0.599,-7.563 0.133,-0.775 1.124,-1.827 1.857,-1.95 0.681,-0.114 1.954,0.664 2.253,1.357 1.653,3.835 3.087,7.764 4.597,11.66 -0.567,0.317 -1.133,0.633 -1.699,0.949 z m 13.197,-5.596 c -2.157,-0.524 -4.56,-1.86 -6.388,-1.304 -1.349,0.41 -1.948,3.288 -2.881,5.067 -0.437,-0.034 -0.873,-0.068 -1.31,-0.101 -0.337,-4.463 -0.789,-8.923 -0.851,-13.39 -0.007,-0.502 2.931,-1.771 3.264,-1.439 3.201,3.187 6.136,6.642 9.148,10.02 -0.327,0.381 -0.654,0.764 -0.982,1.147 z m 4.069,-2.063 c -0.918,0.205 -2.742,-1.726 -3.489,-3.06 -1.695,-3.023 -2.977,-6.278 -4.428,-9.438 0.723,-0.403 1.446,-0.806 2.169,-1.208 1.94,3.368 3.88,6.737 5.855,10.166 1.826,-0.414 3.476,-0.789 5.126,-1.164 0.266,0.489 0.532,0.978 0.798,1.467 -1.994,1.15 -3.886,2.758 -6.031,3.237 z m 13.552,-8.472 c -0.621,3.049 -3.29,4.801 -7.764,3.726 1.901,-1.752 3.286,-3.029 5.33,-4.913 -4.321,-1.354 -9.677,-10e-4 -9.429,-5.68 0.14,-3.2 2.728,-4.991 7.348,-4.134 -1.639,1.735 -2.754,2.916 -4.146,4.39 2.989,2.189 10.059,-0.253 8.661,6.611 z m 8.147,-3.447 c -3.648,-1.747 -7.96,-8.823 -7.673,-12.593 0.433,-0.197 0.866,-0.395 1.299,-0.592 l 7.66,12.44 c -0.429,0.248 -0.858,0.496 -1.286,0.745 z m 8.505,-11.714 c -0.923,1.321 -0.156,3.823 -0.156,6.388 -0.749,-0.291 -1.873,-0.4 -2.447,-1.018 -1.225,-1.321 -2.375,-2.802 -3.172,-4.408 -1.091,-2.198 -3.181,-5.27 -2.431,-6.728 1.549,-3.016 4.975,-3.964 8.496,-2.475 1.163,2.765 1.764,5.302 -0.29,8.241 z m 3.862,-4.347 c -1.105,-1.336 -2.321,-2.581 -3.492,-3.863 0.008,0.003 0.016,0.006 0.024,0.009 -0.094,-1.307 -0.189,-2.614 -0.283,-3.922 1.133,0.702 2.476,1.207 3.353,2.147 1.671,1.791 3.076,3.831 4.415,5.542 2.335,-0.527 4.376,-0.988 6.408,-1.446 -3.518,6.783 -5.82,7.1 -10.425,1.533 z m 19.6,-7.949 c -1.002,-0.159 -2.023,-0.247 -3.004,-0.491 -3.22,-0.8 -5.026,-0.164 -3.885,3.649 0.584,1.953 1.004,3.795 -2.135,3.104 -1.502,-3.616 -3.097,-7.203 -4.445,-10.88 -0.392,-1.07 -0.056,-2.406 -0.054,-3.62 1.201,0.042 2.622,-0.317 3.565,0.198 3.675,2.008 7.198,4.292 10.777,6.474 -0.273,0.522 -0.546,1.044 -0.819,1.566 z m 16.543,-22.394 c -1.234,-0.833 -2.31,-1.898 -3.496,-2.807 -1.043,-0.799 -2.14,-1.528 -3.994,-2.841 -3.211,7.028 6.43,7.167 5.613,13.509 -2.536,-1.879 -4.423,-3.534 -6.555,-4.768 -1.45,-0.839 -3.241,-1.089 -4.879,-1.603 0.599,1.608 0.994,3.336 1.847,4.797 1.253,2.148 2.833,4.104 4.273,6.142 -2.631,-0.085 -5.262,-0.162 -7.893,-0.26 -0.648,-0.024 -1.294,-0.114 -2.396,-0.216 1.808,2.453 3.255,4.415 4.702,6.377 -0.423,0.388 -0.846,0.776 -1.269,1.163 -4.088,-2.201 -6.766,-6.097 -9.94,-9.396 0.9,-0.788 1.802,-2.235 2.701,-2.233 2.278,0.003 4.555,0.657 6.834,1.051 0.059,-0.321 0.231,-0.75 0.136,-0.821 -4.368,-3.245 -3.933,-6.29 -0.142,-9.873 2.99,-2.826 5.369,-6.293 8.09,-9.413 0.874,-1.002 1.974,-1.805 3.916,-1.977 -0.641,1.795 -1.283,3.59 -1.924,5.385 0.275,0.266 0.55,0.533 0.824,0.799 1.482,-0.922 2.964,-1.843 5.009,-3.116 -0.224,2.618 -0.412,4.809 -0.701,8.176 2.739,-2.158 4.209,-3.316 5.989,-4.719 0.129,5.422 -3.62,8.754 -6.745,6.644 z m 7.034,-7.067 c 0.841,-2.373 1.478,-4.17 2.276,-6.418 -4.135,-0.337 -9.271,4.983 -10.964,-2.117 -0.599,-2.511 0.901,-4.99 4.862,-5.27 -0.716,2.024 -1.26,3.564 -1.935,5.472 4.037,0.527 9.252,-5.553 11.09,1.999 0.779,3.204 -1.232,5.444 -5.329,6.334 z m 5.426,-15.002 c -2.595,-1.424 -4.96,-3.266 -7.424,-4.93 0.409,-0.688 0.817,-1.377 1.226,-2.065 3.397,1.831 6.795,3.661 9.978,5.376 1.727,-1.263 3.276,-2.397 4.817,-3.524 -0.919,2.39 -1.581,4.974 -3.066,6.936 -0.398,0.526 -3.778,-0.832 -5.531,-1.793 z m 13.907,-14.092 c -4.071,0.263 -6.968,1.04 -3.486,5.876 0.241,0.334 -1.087,1.797 -1.695,2.742 -2.618,-2.885 -5.309,-5.7 -7.777,-8.698 -0.721,-0.876 -0.773,-2.301 -1.132,-3.474 1.191,-0.303 2.442,-1.006 3.562,-0.837 3.941,0.594 7.837,1.488 12.771,2.471 -1.387,1.218 -1.794,1.891 -2.243,1.92 z m 5.07,-8.938 c -0.583,0.744 -3.247,0.229 -4.8,-0.249 -2.35,-0.724 -4.614,-1.807 -6.795,-2.963 -0.907,-0.481 -1.507,-1.543 -2.246,-2.341 0.308,-0.468 0.615,-0.935 0.923,-1.403 3.547,1.361 7.095,2.723 10.863,4.169 1.054,-1.431 2.146,-2.914 3.239,-4.398 0.509,0.221 1.017,0.442 1.526,0.663 -0.844,2.221 -1.31,4.738 -2.71,6.522 z m 3.518,-7.522 c -5.021,-2.108 -9.293,-3.902 -13.564,-5.696 0.238,-0.744 0.476,-1.487 0.714,-2.231 2.046,0.623 4.171,1.063 6.121,1.908 4.319,1.872 6.971,1.015 7.48,-4.246 -2.537,-1.938 -5.233,-3.849 -7.733,-5.989 -0.875,-0.749 -1.269,-2.062 -1.883,-3.117 1.079,-0.572 2.136,-1.583 3.241,-1.638 4.024,-0.199 8.063,-0.079 12.097,-0.079 0.114,0.426 0.228,0.853 0.342,1.279 -2.031,1.506 -4.061,3.012 -6.337,4.7 6.297,5.459 1.136,9.721 -0.478,15.109 z m 8.459,-36.286 c 0.415,3.67 1.29,6.198 0.815,8.439 -0.71,3.347 -3.247,5.447 -6.929,5.211 -3.829,-0.245 -6.596,-2.135 -7.674,-5.994 -0.876,-3.133 0.209,-5.509 3.027,-8.281 1.196,4.486 -2.592,10.397 4.754,10.677 3.187,0.121 4.235,-1.742 4.508,-5.262 -1.94,0.607 -3.347,1.047 -5.722,1.791 0.719,-2.361 1.258,-4.131 1.912,-6.276 -3.325,-1.157 -7.409,-3.401 -5.777,-8.327 0.784,-2.364 4.022,-4.849 6.583,-5.462 3.514,-0.842 6.952,1.121 8.31,4.875 1.748,4.832 -1.603,7.29 -3.807,8.609 z m 5.049,-20.986 c 1.911,2.458 1.473,5.283 -2.008,7.798 -0.315,-2.429 -0.564,-4.352 -1.031,-7.952 -2.001,2.405 -3.047,4.016 -4.429,5.247 -2.532,2.255 -6.381,1.424 -6.509,-1.742 -0.23,-5.725 0.646,-11.494 1.061,-17.245 0.603,-0.142 1.207,-0.285 1.81,-0.427 1.484,8.047 9.271,2.527 13.791,7.479 h -13.169 v 8.563 c 3.885,-2.034 6.988,-6.219 10.484,-1.721 z m -13.511,-46.006 c -0.149,-4.164 2.239,-6.935 6.041,-7.041 3.569,-0.1 6.81,2.989 6.678,6.615 -0.143,3.931 -2.308,6.172 -6.273,6.301 -3.946,0.128 -6.298,-1.733 -6.446,-5.875 z m 16.074,32.663 c -2.972,1.3 -13.585,-1.262 -14.717,-3.378 -0.411,-0.767 -0.18,-2.788 0.254,-2.956 4.446,-1.721 8.995,-3.179 13.515,-4.71 l 1.441,1.692 c -4.997,3.099 -7.274,6.26 -0.493,9.352 z m -3.558,-63.457 c -0.732,-0.331 -1.62,-0.304 -2.425,-0.492 -3.546,-0.827 -8.133,-0.64 -10.304,-2.836 -1.755,-1.775 -0.288,-6.48 -0.825,-9.792 -0.518,-3.195 -1.772,-6.27 -2.703,-9.397 -0.693,0.126 -1.386,0.252 -2.079,0.378 -0.106,2.01 -0.38,4.028 -0.279,6.028 0.159,3.152 0.797,6.288 0.835,9.435 0.15,12.648 -9.963,20.085 -22.224,16.545 -7.101,-2.05 -12.323,-6.411 -15.999,-12.697 -4.82,-8.242 -6.826,-17.262 -6.771,-26.718 0.006,-1.127 1.518,-2.625 2.702,-3.262 1.229,-0.66 2.904,-0.559 4.392,-0.654 3.311,-0.211 7.083,-1.333 9.76,-0.105 1.479,0.678 1.044,5.369 1.617,8.221 0.806,4.012 -0.035,8.783 5.718,11.746 0,-2.907 0.175,-5.117 -0.048,-7.285 -0.237,-2.304 -0.917,-4.558 -1.288,-6.852 -1.093,-6.758 0.631,-12.755 6.101,-16.924 5.752,-4.383 12.235,-4.615 18.846,-1.571 7.435,3.423 11.453,9.83 14.851,16.78 4.066,8.316 4.869,17.196 4.383,26.284 -0.148,2.789 -0.86,4.706 -4.26,3.168 z"
             id="path3974" />
        </g>
        <g
           id="g3980">
          <path
             style="fill:#ffffff"
             inkscape:connector-curvature="0"
             d="m 352.354,495.125 c 0.065,14.845 -7.005,23.505 -21.72,27.118 -6.611,1.623 -13.492,2.333 -19.923,4.451 -9.256,3.049 -18.22,6.986 -27.294,10.581 -6.009,2.381 -11.89,5.136 -18.016,7.157 -6.535,2.156 -12.967,0.921 -18.547,-3 -10.283,-7.227 -17.356,-16.742 -14.981,-29.871 2.445,-13.51 5.252,-27.176 9.985,-40.005 9.638,-26.123 42.656,-38.105 67.847,-24.92 14.051,7.354 25.606,17.933 36.257,29.406 4.96,5.342 7.226,12.327 6.392,19.083 z"
             id="path3978" />
        </g>
        <g
           id="g3984">
          <path
             style="fill:#ffffff"
             inkscape:connector-curvature="0"
             d="m 216.639,225.917 c -0.959,-7.215 -2.774,-21.513 -3.746,-27.66 6.94,-4.09 20.774,-10.09 27.774,-11.84 8.899,16.147 19.839,36.889 28.5,53.167 -4.667,1.25 -15.25,5.25 -20,7.417 -4.145,-6.566 -10.205,-16.987 -14.853,-23.385 1.32,8.148 3.075,19.056 4.519,28.468 -3.5,1.333 -8.333,4.333 -11.319,6.342 -5.084,-4.214 -16.735,-13.619 -22.546,-17.233 3.685,6.577 9.378,17.238 13.343,23.641 -5.561,3.75 -12.311,9.083 -16.361,13.447 -1.717,-2.419 -3.369,-4.435 -4.684,-6.65 -8.141,-13.718 -18.791,-31.495 -26.933,-45.213 7.667,-6.667 15.75,-12.833 24.667,-18 5.644,4.771 15.066,12.282 21.639,17.499 z"
             id="path3982" />
        </g>
        <g
           id="g3988">
          <path
             style="fill:#ffffff"
             inkscape:connector-curvature="0"
             d="m 410.382,375.28 c 0.09,18.181 -13.458,28.133 -25.628,22.129 -12.483,-6.159 -25.386,-10.324 -38.787,-13.742 -13.082,-3.336 -17.753,-17.721 -9.347,-28.393 6.934,-8.802 15.639,-16.03 25.98,-20.556 15.94,-6.975 34.753,0.351 41.181,16.484 3.58,8.988 5.19,18.761 6.601,24.078 z"
             id="path3986" />
        </g>
        <g
           id="g3992">
          <path
             style="fill:#ffffff"
             inkscape:connector-curvature="0"
             d="m 134.727,338.592 c 6.79,2.185 16.611,5.279 24.898,7.845 -1.663,5.016 -4.166,14.49 -5.697,20.182 -7.466,-1.258 -14.782,-2.395 -22.061,-3.739 -10.281,-1.898 -26.322,-4.972 -36.617,-6.787 1.667,-10.677 4.333,-19.844 7.5,-28.51 9.412,-2.63 22.906,-6.259 32.496,-9.075 -6.842,-2.959 -18.326,-7.779 -25.163,-10.55 2.917,-9.458 7.417,-18.208 13.125,-25.583 6.667,3.792 36.684,21.723 51.458,30.708 -4.042,5.167 -8.042,13.542 -9.917,18.542 -8.896,1.854 -21.086,4.051 -30.015,5.743 -2,0.507 -1.39,0.679 -0.007,1.224 z"
             id="path3990" />
        </g>
        <g
           id="g3996">
          <path
             style="fill:#ffffff"
             inkscape:connector-curvature="0"
             d="m 91,390.667 c 0,0 25.167,-10.584 62.625,-19.167 -2.292,11.167 -2.5,14.5 -2.958,22.833 -2,1.145 -4.5,2.489 -6.667,3.5 0.329,4.16 0.292,10.625 0.667,14.458 0.807,0.017 5.042,0.958 7.667,1.417 0.999,11.875 1.713,15.792 3.583,23.25 -17.851,-3.835 -47.054,-9.518 -64.917,-13.292 -1.333,-8.249 -2.5,-23.249 0,-32.999 m 38.438,19.396 c -0.231,-1.287 -0.541,-4.463 -1.188,-8.75 -4.237,1.324 -10.228,3.867 -15.25,5.438 5.253,1.116 11.397,2.24 16.438,3.312 z"
             id="path3994" />
        </g>
        <g
           id="g4000">
          <path
             style="fill:#ffffff"
             inkscape:connector-curvature="0"
             d="m 312.031,233.156 c -0.89,-2.412 -1.273,-3.379 -2.246,-6.406 -4.827,0.292 -9.662,0.574 -14.941,1.188 -0.145,1.665 -0.625,4.094 -1.012,6.812 -4.999,0.75 -15.79,3.083 -21.062,4.437 0.397,-5.319 6.648,-48.076 9.938,-62.979 9.124,-1.24 21.257,-2.417 31.583,-2.417 5.098,12.31 16.828,45.273 21.005,59.646 -3.421,-0.281 -19.541,-0.521 -23.265,-0.281 z m -6.406,-22.031 c -1.983,-5.619 -5.25,-15.417 -5.25,-15.417 -1.024,4.38 -2.14,11.299 -3.083,15.75 2.664,-0.132 5.605,-0.199 8.333,-0.333 z"
             id="path3998" />
        </g>
        <g
           id="g4004">
          <path
             style="fill:#ffffff"
             inkscape:connector-curvature="0"
             d="m 507.281,320.719 c -1.125,-2.188 -2.906,-1.844 -3.241,0.781 -0.106,2.01 0.337,4.071 0.438,6.071 0.159,3.152 0.797,6.288 0.835,9.435 0.15,12.648 -9.963,20.085 -22.224,16.545 -7.101,-2.05 -12.323,-6.411 -15.999,-12.697 -4.82,-8.242 -7.583,-20.242 -7.528,-29.698 4.964,-0.731 12.844,-1.656 18.094,-2.219 0.177,5.146 2.51,21.146 6.853,21.142 1.741,-0.538 -0.947,-12.549 -0.842,-13.122 -0.201,-5.816 0.137,-13.77 5.607,-17.939 5.752,-4.383 12.235,-4.615 18.846,-1.571 7.435,3.423 11.453,9.83 14.851,16.78 4.066,8.316 4.185,21.397 4.373,28.803 -4.5,-0.344 -12.283,-0.694 -16.302,-0.948 1.375,-14.165 -3.347,-19.973 -3.761,-21.363"
             id="path4002" />
        </g>
        <g
           id="g4008">
          <path
             style="fill:#ffffff"
             inkscape:connector-curvature="0"
             d="m 426.125,230.875 c 2.437,1.385 12.531,8.281 15.394,10.864 -3.618,4.538 -5.721,7.535 -9.074,11.741 -4.695,-3.73 -11.528,-8.563 -14.827,-10.699 -0.802,1.309 -2.283,3.982 -3.184,5.402 3.441,2.025 12.941,8.817 16.107,11.608 -2.395,2.607 -6.953,8.63 -9.875,11.958 -12.15,-9.495 -21.292,-15.375 -33.75,-21.625 4.57,-9.195 25.229,-50.125 26.646,-52.792 16.27,8.75 30.437,17.75 44.076,28.573 -3.707,4.536 -6.108,7.699 -9.681,12.071 -4.896,-4.164 -14.588,-10.602 -18.125,-12.81 -0.936,1.369 -2.593,3.982 -3.707,5.709 z"
             id="path4006" />
        </g>
        <g
           id="g4012">
          <path
             style="fill:#ffffff"
             inkscape:connector-curvature="0"
             d="m 504.04,279.04 c -3.58,2.1 -13.44,8.16 -16.87,10.5 -2.003,-3.165 -5.837,-8.207 -8.43,-11.2 -8.21,5.94 -23.108,16.709 -30.91,22.49 -4.95,-6.913 -7.455,-10.08 -14.151,-16.713 7.031,-6.666 18.191,-17.257 27.741,-26.307 -2.087,-2.893 -9.503,-10.768 -9.503,-10.768 0,0 9.583,-9.902 14.053,-14.782 7.78,6.49 32.752,37.915 38.07,46.78 z"
             id="path4010" />
        </g>
        <g
           id="g4018">
          <g
             id="g4016">
            <path
               style="fill:#ffffff"
               inkscape:connector-curvature="0"
               d="m 339.164,234.073 c 1.111,-7.293 2.265,-14.801 3.398,-22.313 1.51,-10.005 3.973,-25.982 5.313,-36.01 9,1.375 22.21,4.25 29.438,6.688 -2.985,8.795 -10.715,35.963 -11.109,37.649 5.758,2.104 15.794,5.742 21.109,7.601 -2.37,5.45 -6.211,13.86 -8.375,18.25 -16.521,-6.751 -25.438,-9.688 -39.774,-11.865 z"
               id="path4014" />
          </g>
        </g>
        <g
           id="g4022">
          <path
             style="fill:#ffffff"
             inkscape:connector-curvature="0"
             d="m 314.884,411.67 c 0.219,17.401 -13.404,28.368 -29.164,23.303 -7.846,-2.522 -12.509,-8.331 -13.709,-16.276 -1.816,-12.032 0.766,-23.131 9.133,-32.396 7.781,-8.615 17.797,-8.191 25.166,0.85 5.834,7.157 7.854,15.599 8.574,24.519 z"
             id="path4020" />
        </g>
        <g
           id="g4026">
          <path
             style="fill:#ffffff"
             inkscape:connector-curvature="0"
             d="m 239.196,450.379 c -5.446,-0.629 -8.418,-2.949 -11.975,-5.38 -9.735,-6.652 -15.434,-22.788 -12.652,-34.201 1.822,-7.473 7.872,-12.133 15.475,-10.932 13.653,2.157 23.741,9.586 28.765,22.595 5.041,13.052 -6.017,27.706 -19.613,27.918 z"
             id="path4024" />
        </g>
        <g
           id="g4030">
          <path
             style="fill:#ffffff"
             inkscape:connector-curvature="0"
             d="m 154.607,240.491 c 5.208,4.871 37.491,40.162 41.04,43.961 -5.35,5.995 -10.48,11.381 -14.475,17.548 -8.878,-6.123 -47.46,-33.201 -48.764,-34.034 5.925,-9.966 13.505,-20.133 22.199,-27.475 z"
             id="path4028" />
        </g>
        <g
           id="g4034">
          <path
             style="fill:#ffffff"
             inkscape:connector-curvature="0"
             d="m 323.415,439.55 c 0.46,-4.05 2.19,-6.768 4.652,-10.309 4.971,-7.15 11.821,-11.943 20.571,-13.84 11.219,-2.433 19.16,3.521 18.577,14.856 -0.532,10.349 -4.613,19.391 -13.016,25.879 -6.165,4.76 -13.127,5.785 -20.104,1.96 -6.344,-3.479 -10.092,-8.965 -10.68,-18.546 z"
             id="path4032" />
        </g>
        <g
           id="g4038">
          <path
             style="fill:#ffffff"
             inkscape:connector-curvature="0"
             d="m 211.062,458.875 c 5.563,0.375 8.562,0.977 12.506,2.563 9.217,3.708 13.134,12.365 10.212,21.545 -2.819,8.856 -11.386,13.667 -20.865,11.819 -8.501,-1.656 -15.683,-5.518 -20.719,-12.676 -5.669,-8.057 -3.292,-16.676 5.779,-20.424 4.083,-1.686 7.275,-2.264 13.087,-2.827 z"
             id="path4036" />
        </g>
        <g
           id="g4042">
          <path
             style="fill:#ffffff"
             inkscape:connector-curvature="0"
             d="m 385.472,313.845 c 0.066,9.705 -4.923,15.397 -13.583,15.491 -8.802,0.096 -14.183,-5.837 -14.293,-15.492 -0.074,-6.458 1.928,-12.116 6.143,-16.917 4.392,-5.003 9.963,-5.164 14.767,-0.607 5.018,4.76 6.901,10.787 6.966,17.525 z"
             id="path4040" />
        </g>
        <g
           id="g4046">
          <path
             style="fill:#ffffff"
             inkscape:connector-curvature="0"
             d="m 422.311,319.477 c -0.745,4.974 -2.755,11.182 -8.341,15.597 -5.359,4.236 -11.096,4.262 -16.467,0.231 -5.143,-3.86 -6.72,-9.781 -3.91,-15.954 3.598,-7.905 10.25,-12.519 18.49,-13.362 6.043,-0.619 10.585,3.454 10.228,13.488 z"
             id="path4044" />
        </g>
        <g
           id="g4050">
          <path
             style="fill:#ffffff"
             inkscape:connector-curvature="0"
             d="m 339.673,344.43 c -6.564,-0.094 -12.54,-5.252 -14.679,-13.417 -0.804,-3.067 -0.908,-6.568 -0.331,-9.687 0.841,-4.553 4.658,-7.124 9.182,-6.451 8.074,1.201 14.253,5.442 17.442,13.074 3.285,7.862 -3.054,16.604 -11.614,16.481 z"
             id="path4048" />
        </g>
        <g
           id="g4054">
          <path
             style="fill:#ffffff"
             inkscape:connector-curvature="0"
             d="m 423.364,343.226 c 8.469,0.566 12.943,3.702 14.227,8.521 1.206,4.525 -2.541,10.27 -8.968,13.445 -4.959,2.45 -10.143,3.518 -15.183,0.41 -3.865,-2.383 -5.233,-6.203 -4.986,-10.687 0.244,-4.435 2.477,-7.584 6.409,-9.27 2.685,-1.151 4.095,-2.02 8.501,-2.419 z"
             id="path4052" />
        </g>
        <g
           id="g4058">
          <path
             style="fill:#ffffff"
             inkscape:connector-curvature="0"
             d="m 516.619,367.433 c 3.569,-0.1 6.81,2.989 6.678,6.616 -0.143,3.931 -2.308,6.172 -6.273,6.301 -3.947,0.129 -6.299,-1.733 -6.447,-5.875 -0.148,-4.164 2.24,-6.935 6.042,-7.042 z"
             id="path4056" />
        </g>
        <g
           id="g4062">
          <path
             style="fill:#ffffff"
             inkscape:connector-curvature="0"
             d="m 131.383,470.521 c -0.137,3.255 -2.15,5.51 -6.055,5.798 -3.795,0.279 -6.87,-2.552 -6.785,-6.263 0.088,-3.843 1.947,-6.237 6.041,-6.376 4.085,-0.139 6.737,2.288 6.799,6.841 z"
             id="path4060" />
        </g>
        <g
           style="display:none"
           display="none"
           id="g4066">
          <path
             style="display:inline;fill:#20ff00"
             inkscape:connector-curvature="0"
             display="inline"
             d="m 129.57,409.404 c -5.04,-1.072 -8.968,-1.908 -14.221,-3.025 5.022,-1.57 8.716,-2.724 12.953,-4.049 0.41,2.29 0.74,4.13 1.268,7.074 z"
             id="path4064" />
        </g>
        <g
           style="display:none"
           display="none"
           id="g4070">
          <path
             style="display:inline;fill:#20ff00"
             inkscape:connector-curvature="0"
             display="inline"
             d="m 303.087,211.335 c -2.727,0.135 -4.47,0.221 -7.134,0.352 0.662,-4.253 1.267,-8.136 1.871,-12.019 0.307,-0.023 0.614,-0.047 0.921,-0.07 1.332,3.599 2.663,7.198 4.342,11.737 z"
             id="path4068" />
        </g>
      </g>
    </g>
    <text
       y="24.636763"
       x="95.906273"
       style="font-size:5.75302505px;font-family:MyriadPro-Regular;fill:#ffffff;stroke-width:0.25013152"
       transform="matrix(0.41909117,0.847385,-0.94819112,0.46891246,0,0)"
       font-size="23"
       id="text4076">A</text>
    <text
       y="29.641745"
       x="97.976685"
       style="font-size:5.75333166px;font-family:MyriadPro-Regular;fill:#ffffff;stroke-width:0.25012961"
       transform="matrix(0.46606003,0.82253354,-0.92027287,0.52148796,0,0)"
       font-size="23.0014"
       id="text4078">S</text>
    <text
       y="34.222683"
       x="99.287025"
       style="font-size:5.75314713px;font-family:MyriadPro-Regular;fill:#ffffff;stroke-width:0.25013682"
       transform="matrix(0.50708746,0.79786414,-0.89274471,0.56737946,0,0)"
       font-size="23"
       id="text4080">S</text>
    <text
       y="39.738049"
       x="99.921097"
       style="font-size:5.7528758px;font-family:MyriadPro-Regular;fill:#ffffff;stroke-width:0.25012502"
       transform="matrix(0.55418369,0.76585034,-0.85703307,0.6200849,0,0)"
       font-size="23"
       id="text4082">O</text>
    <text
       y="45.710495"
       x="101.11375"
       style="font-size:5.75274563px;font-family:MyriadPro-Regular;fill:#ffffff;stroke-width:0.25011936"
       transform="matrix(0.60243319,0.72852631,-0.81516245,0.67415394,0,0)"
       font-size="23"
       id="text4084">C</text>
    <text
       y="49.667812"
       x="102.42096"
       style="font-size:5.7539382px;font-family:MyriadPro-Regular;fill:#ffffff;stroke-width:0.25013208"
       transform="matrix(0.63307802,0.70204492,-0.7856091,0.70839156,0,0)"
       font-size="23.0036"
       id="text4086">I</text>
    <text
       y="53.819298"
       x="101.46242"
       style="font-size:5.75282097px;font-family:MyriadPro-Regular;fill:#ffffff;stroke-width:0.25012264"
       transform="matrix(0.66367275,0.67319308,-0.75326963,0.74269148,0,0)"
       font-size="23"
       id="text4088">A</text>
    <text
       y="59.565819"
       x="101.4062"
       style="font-size:5.75282907px;font-family:MyriadPro-Regular;fill:#ffffff;stroke-width:0.25012299"
       transform="matrix(0.70386872,0.63109119,-0.70619591,0.78754172,0,0)"
       font-size="23"
       id="text4090">C</text>
    <text
       y="63.586163"
       x="102.02124"
       style="font-size:5.75340939px;font-family:MyriadPro-Regular;fill:#ffffff;stroke-width:0.25012538"
       transform="matrix(0.73051863,0.59998576,-0.67138745,0.81747003,0,0)"
       font-size="23.0021"
       id="text4092">I</text>
    <text
       y="68.097176"
       x="100.04964"
       style="font-size:5.75390816px;font-family:MyriadPro-Regular;fill:#ffffff;stroke-width:0.25013077"
       transform="matrix(0.75895714,0.56358518,-0.63064843,0.84929155,0,0)"
       font-size="23.0036"
       id="text4094">Ó</text>
    <text
       y="72.506271"
       x="100.497"
       style="font-size:5.7528882px;font-family:MyriadPro-Regular;fill:#ffffff;stroke-width:0.25012559"
       transform="matrix(0.78520637,0.52646802,-0.58919567,0.8785045,0,0)"
       font-size="23"
       id="text4096" />
    <text
       y="76.156258"
       x="98.637413"
       style="font-size:5.75272131px;font-family:MyriadPro-Regular;fill:#ffffff;stroke-width:0.25011835"
       transform="matrix(0.80575114,0.49443099,-0.55324648,0.90159078,0,0)"
       font-size="23"
       id="text4098">P</text>
    <text
       y="81.277313"
       x="96.971413"
       style="font-size:5.75220728px;font-family:MyriadPro-Regular;fill:#ffffff;stroke-width:0.25012207"
       transform="matrix(0.83260763,0.44777387,-0.50098205,0.93161929,0,0)"
       font-size="22.9976"
       id="text4100">R</text>
    <text
       y="87.039734"
       x="94.193108"
       style="font-size:5.75283337px;font-family:MyriadPro-Regular;fill:#ffffff;stroke-width:0.2501232"
       transform="matrix(0.86010701,0.3923425,-0.43899201,0.96239743,0,0)"
       font-size="23"
       id="text4102">O</text>
    <text
       y="92.463707"
       x="92.077271"
       style="font-size:5.75290966px;font-family:MyriadPro-Regular;fill:#ffffff;stroke-width:0.25012651"
       transform="matrix(0.88326139,0.33690869,-0.37689345,0.98840652,0,0)"
       font-size="23"
       id="text4104">T</text>
    <text
       y="96.979454"
       x="89.497513"
       style="font-size:5.75296831px;font-family:MyriadPro-Regular;fill:#ffffff;stroke-width:0.25012904"
       transform="matrix(0.90017702,0.28877594,-0.32315403,1.0072251,0,0)"
       font-size="23"
       id="text4106">E</text>
    <text
       y="101.67991"
       x="86.132095"
       style="font-size:5.75302505px;font-family:MyriadPro-Regular;fill:#ffffff;stroke-width:0.25013155"
       transform="matrix(0.91550583,0.23577845,-0.26380954,1.0243511,0,0)"
       font-size="23"
       id="text4108">C</text>
    <text
       y="106.2365"
       x="82.948471"
       style="font-size:5.75309181px;font-family:MyriadPro-Regular;fill:#ffffff;stroke-width:0.25012681"
       transform="matrix(0.9276878,0.18172948,-0.20330854,1.0381217,0,0)"
       font-size="23.0007"
       id="text4110">T</text>
    <text
       y="111.02086"
       x="78.282845"
       style="font-size:5.75311279px;font-family:MyriadPro-Regular;fill:#ffffff;stroke-width:0.25013533"
       transform="matrix(0.93749334,0.12174826,-0.13623959,1.0489814,0,0)"
       font-size="23"
       id="text4112">O</text>
    <text
       y="115.68726"
       x="74.194359"
       style="font-size:5.75281143px;font-family:MyriadPro-Regular;fill:#ffffff;stroke-width:0.25012222"
       transform="matrix(0.94346621,0.05966083,-0.0667482,1.0557005,0,0)"
       font-size="23"
       id="text4114">R</text>
    <text
       y="119.78326"
       x="69.493004"
       style="font-size:5.75290012px;font-family:MyriadPro-Regular;fill:#ffffff;stroke-width:0.25012609"
       transform="matrix(0.94535569,0.0015867,-0.00179826,1.0577999,0,0)"
       font-size="23"
       id="text4116">A</text>
    <text
       y="122.57668"
       x="67.238686"
       style="font-size:5.75295448px;font-family:MyriadPro-Regular;fill:#ffffff;stroke-width:0.25012845"
       transform="matrix(0.94450059,-0.04030179,0.04506185,1.0568378,0,0)"
       font-size="23"
       id="text4118" />
    <text
       y="125.44337"
       x="62.104984"
       style="font-size:5.75301361px;font-family:MyriadPro-Regular;fill:#ffffff;stroke-width:0.25013101"
       transform="matrix(0.94152908,-0.08536276,0.09551744,1.0534421,0,0)"
       font-size="23"
       id="text4120">D</text>
    <text
       y="128.11938"
       x="59.436485"
       style="font-size:5.75302505px;font-family:MyriadPro-Regular;fill:#ffffff;stroke-width:0.25013152"
       transform="matrix(0.93634407,-0.13021233,0.14565587,1.0477279,0,0)"
       font-size="23"
       id="text4122">’</text>
    <text
       y="130.50864"
       x="54.341129"
       style="font-size:5.75279188px;font-family:MyriadPro-Regular;fill:#ffffff;stroke-width:0.25012138"
       transform="matrix(0.92950616,-0.17242461,0.19294631,1.0400483,0,0)"
       font-size="23"
       id="text4124">A</text>
    <text
       y="133.81258"
       x="48.031849"
       style="font-size:5.75287294px;font-family:MyriadPro-Regular;fill:#ffffff;stroke-width:0.25012493"
       transform="matrix(0.91553006,-0.2356789,0.26371073,1.0243781,0,0)"
       font-size="23"
       id="text4126">N</text>
    <text
       y="135.96165"
       x="44.617851"
       style="font-size:5.75251913px;font-family:MyriadPro-Regular;fill:#ffffff;stroke-width:0.25011495"
       transform="matrix(0.90276658,-0.280541,0.31396897,1.010138,0,0)"
       font-size="22.9995"
       id="text4128">I</text>
    <text
       y="138.17598"
       x="37.593441"
       style="font-size:5.75352669px;font-family:MyriadPro-Regular;fill:#ffffff;stroke-width:0.25012726"
       transform="matrix(0.88537439,-0.33130138,0.37075714,0.99073077,0,0)"
       font-size="23.0024"
       id="text4130">M</text>
    <text
       y="140.68576"
       x="30.705635"
       style="font-size:5.75220728px;font-family:MyriadPro-Regular;fill:#ffffff;stroke-width:0.25012207"
       transform="matrix(0.85778367,-0.39742179,0.4447062,0.95975722,0,0)"
       font-size="22.9976"
       id="text4132">A</text>
    <text
       y="142.28008"
       x="25.291735"
       style="font-size:5.75286198px;font-family:MyriadPro-Regular;fill:#ffffff;stroke-width:0.25012445"
       transform="matrix(0.83312861,-0.4467118,0.49991948,0.93224511,0,0)"
       font-size="23"
       id="text4134">L</text>
    <text
       y="143.44411"
       x="19.990545"
       style="font-size:5.75295305px;font-family:MyriadPro-Regular;fill:#ffffff;stroke-width:0.25012839"
       transform="matrix(0.80889207,-0.48933369,0.54751214,0.90504518,0,0)"
       font-size="23"
       id="text4136">S</text>
    <text
       y="144.145"
       x="16.866528"
       style="font-size:5.75293827px;font-family:MyriadPro-Regular;fill:#ffffff;stroke-width:0.25012776"
       transform="matrix(0.78932495,-0.52022248,0.58210335,0.88325695,0,0)"
       font-size="23"
       id="text4138" />
    <text
       y="144.54504"
       x="14.172359"
       style="font-size:5.75305367px;font-family:MyriadPro-Regular;fill:#ffffff;stroke-width:0.25013277"
       transform="matrix(0.77576971,-0.54030975,0.60451649,0.8680074,0,0)"
       font-size="23"
       id="text4140">I</text>
    <text
       y="144.86937"
       x="11.625893"
       style="font-size:5.75285625px;font-family:MyriadPro-Regular;fill:#ffffff;stroke-width:0.25012419"
       transform="matrix(0.76172746,-0.55989772,0.62653962,0.85227582,0,0)"
       font-size="23"
       id="text4142" />
    <text
       y="145.26979"
       x="6.6107702"
       style="font-size:5.75275183px;font-family:MyriadPro-Regular;fill:#ffffff;stroke-width:0.25011963"
       transform="matrix(0.7386807,-0.5899502,0.66008414,0.82658614,0,0)"
       font-size="23"
       id="text4144">P</text>
    <text
       y="145.57704"
       x="1.353891"
       style="font-size:5.75193167px;font-family:MyriadPro-Regular;fill:#ffffff;stroke-width:0.25011986"
       transform="matrix(0.70662787,-0.62803139,0.70271391,0.79061927,0,0)"
       font-size="22.9967"
       id="text4146">L</text>
    <text
       y="145.61646"
       x="-4.8371782"
       style="font-size:5.75291872px;font-family:MyriadPro-Regular;fill:#ffffff;stroke-width:0.2501269"
       transform="matrix(0.67000826,-0.66694065,0.74627538,0.74966033,0,0)"
       font-size="23"
       id="text4148">A</text>
    <text
       y="145.30305"
       x="-11.609899"
       style="font-size:5.75287676px;font-family:MyriadPro-Regular;fill:#ffffff;stroke-width:0.25012508"
       transform="matrix(0.62516223,-0.70915188,0.79345887,0.69952586,0,0)"
       font-size="23"
       id="text4150">N</text>
    <text
       y="144.68439"
       x="-17.155737"
       style="font-size:5.75298595px;font-family:MyriadPro-Regular;fill:#ffffff;stroke-width:0.25012982"
       transform="matrix(0.58209854,-0.7448915,0.8335338,0.65127762,0,0)"
       font-size="23"
       id="text4152">T</text>
    <text
       y="143.89203"
       x="-22.26185"
       style="font-size:5.75303221px;font-family:MyriadPro-Regular;fill:#ffffff;stroke-width:0.25013185"
       transform="matrix(0.5432735,-0.77365701,0.86568348,0.60790359,0,0)"
       font-size="23"
       id="text4154">E</text>
    <text
       y="142.88643"
       x="-27.279583"
       style="font-size:5.75295115px;font-family:MyriadPro-Regular;fill:#ffffff;stroke-width:0.2501283"
       transform="matrix(0.5034025,-0.80021851,0.89531388,0.56327344,0,0)"
       font-size="23"
       id="text4156">S</text>
    <text
       y="141.98189"
       x="-30.103971"
       style="font-size:5.75341558px;font-family:MyriadPro-Regular;fill:#ffffff;stroke-width:0.25012568"
       transform="matrix(0.47347197,-0.8182095,0.91563302,0.52974702,0,0)"
       font-size="23.0021"
       id="text4158" />
    <text
       y="141.03038"
       x="-34.351952"
       style="font-size:5.75225306px;font-family:MyriadPro-Regular;fill:#ffffff;stroke-width:0.25012407"
       transform="matrix(0.44364486,-0.83482243,0.93404486,0.49642951,0,0)"
       font-size="22.9976"
       id="text4160">L</text>
    <text
       y="139.32365"
       x="-40.037945"
       style="font-size:5.75314569px;font-family:MyriadPro-Regular;fill:#ffffff;stroke-width:0.25013351"
       transform="matrix(0.39676892,-0.85806172,0.96013637,0.44394539,0,0)"
       font-size="23.0003"
       id="text4162">A</text>
    <text
       y="137.8205"
       x="-42.850254"
       style="font-size:5.75284767px;font-family:MyriadPro-Regular;fill:#ffffff;stroke-width:0.2501238"
       transform="matrix(0.3598668,-0.87417378,0.97815646,0.40270808,0,0)"
       font-size="23"
       id="text4164" />
    <text
       y="136.44592"
       x="-46.909489"
       style="font-size:5.75376225px;font-family:MyriadPro-Regular;fill:#ffffff;stroke-width:0.25013095"
       transform="matrix(0.3282289,-0.88652478,0.99198538,0.36736673,0,0)"
       font-size="23.003"
       id="text4166">L</text>
    <text
       y="134.43599"
       x="-51.243202"
       style="font-size:5.75351858px;font-family:MyriadPro-Regular;fill:#ffffff;stroke-width:0.25013015"
       transform="matrix(0.28507243,-0.90133658,1.0085958,0.31892147,0,0)"
       font-size="23.0021"
       id="text4168">L</text>
    <text
       y="131.91783"
       x="-56.435429"
       style="font-size:5.75291157px;font-family:MyriadPro-Regular;fill:#ffffff;stroke-width:0.2501266"
       transform="matrix(0.23514843,-0.91562967,1.0245829,0.26307428,0,0)"
       font-size="23"
       id="text4170">A</text>
    <text
       y="128.74022"
       x="-61.817829"
       style="font-size:5.75203705px;font-family:MyriadPro-Regular;fill:#ffffff;stroke-width:0.25011793"
       transform="matrix(0.1768699,-0.92867273,1.0391107,0.1979208,0,0)"
       font-size="22.9973"
       id="text4172">G</text>
    <text
       y="125.0759"
       x="-67.252754"
       style="font-size:5.75284147px;font-family:MyriadPro-Regular;fill:#ffffff;stroke-width:0.25012353"
       transform="matrix(0.11466667,-0.93838379,1.0499828,0.12831243,0,0)"
       font-size="23"
       id="text4174">O</text>
    <text
       y="121.57754"
       x="-71.089607"
       style="font-size:5.75273466px;font-family:MyriadPro-Regular;fill:#ffffff;stroke-width:0.25011891"
       transform="matrix(0.05945006,-0.9434788,1.0557146,0.06653752,0,0)"
       font-size="23"
       id="text4176">S</text>
    <text
       y="118.49866"
       x="-74.593857"
       style="font-size:5.7528286px;font-family:MyriadPro-Regular;fill:#ffffff;stroke-width:0.25012299"
       transform="matrix(0.0130111,-0.94526167,1.0577072,0.01459782,0,0)"
       font-size="23"
       id="text4178">T</text>
    <text
       y="114.89901"
       x="-78.536934"
       style="font-size:5.75305796px;font-family:MyriadPro-Regular;fill:#ffffff;stroke-width:0.25013295"
       transform="matrix(-0.0382913,-0.94458933,1.0569245,-0.04283972,0,0)"
       font-size="23"
       id="text4180">A</text>
  </g>
</svg>
